<svg xmlns="http://www.w3.org/2000/svg" viewBox="0 0 1200 630" width="1200" height="630" role="img">
  <defs>
    <linearGradient id="bg" x1="0" y1="0" x2="1" y2="1">
      <stop offset="0%" stop-color="#050509"/>
      <stop offset="100%" stop-color="#0b1520"/>
    </linearGradient>
    <radialGradient id="glow" cx="50%" cy="50%" r="50%">
      <stop offset="0%" stop-color="#38e0ff" stop-opacity="0.35"/>
      <stop offset="100%" stop-color="#38e0ff" stop-opacity="0"/>
    </radialGradient>
    <filter id="soft" x="-50%" y="-50%" width="200%" height="200%">
      <feGaussianBlur stdDeviation="8"/>
    </filter>
  </defs>

  <rect width="1200" height="630" fill="url(#bg)"/>
  <ellipse cx="880" cy="180" rx="430" ry="330" fill="url(#glow)"/>
  <g>
    <circle cx="543" cy="353" r="1.8" fill="#ffffff" opacity="0.35"/>
    <circle cx="1026" cy="120" r="1.8" fill="#ffffff" opacity="0.43"/>
    <circle cx="952" cy="59" r="1.3" fill="#ffffff" opacity="0.21"/>
    <circle cx="646" cy="561" r="0.8" fill="#ffffff" opacity="0.42"/>
    <circle cx="475" cy="285" r="1.0" fill="#ffffff" opacity="0.43"/>
    <circle cx="998" cy="40" r="0.8" fill="#ffffff" opacity="0.24"/>
    <circle cx="290" cy="19" r="1.8" fill="#ffffff" opacity="0.30"/>
    <circle cx="709" cy="123" r="1.0" fill="#ffffff" opacity="0.44"/>
    <circle cx="600" cy="417" r="1.8" fill="#ffffff" opacity="0.44"/>
    <circle cx="488" cy="347" r="0.8" fill="#ffffff" opacity="0.47"/>
    <circle cx="378" cy="145" r="1.3" fill="#ffffff" opacity="0.16"/>
    <circle cx="676" cy="68" r="0.8" fill="#ffffff" opacity="0.53"/>
    <circle cx="464" cy="604" r="0.8" fill="#ffffff" opacity="0.25"/>
    <circle cx="1112" cy="33" r="1.8" fill="#ffffff" opacity="0.59"/>
    <circle cx="477" cy="46" r="1.0" fill="#ffffff" opacity="0.50"/>
    <circle cx="324" cy="55" r="1.3" fill="#ffffff" opacity="0.16"/>
    <circle cx="492" cy="581" r="1.0" fill="#ffffff" opacity="0.26"/>
    <circle cx="121" cy="38" r="1.8" fill="#ffffff" opacity="0.23"/>
    <circle cx="671" cy="282" r="1.0" fill="#ffffff" opacity="0.59"/>
    <circle cx="923" cy="264" r="1.8" fill="#ffffff" opacity="0.20"/>
    <circle cx="505" cy="134" r="1.3" fill="#ffffff" opacity="0.54"/>
    <circle cx="1170" cy="373" r="0.8" fill="#ffffff" opacity="0.24"/>
    <circle cx="473" cy="538" r="0.8" fill="#ffffff" opacity="0.17"/>
    <circle cx="176" cy="278" r="0.8" fill="#ffffff" opacity="0.50"/>
    <circle cx="395" cy="187" r="0.8" fill="#ffffff" opacity="0.18"/>
    <circle cx="250" cy="401" r="0.8" fill="#ffffff" opacity="0.42"/>
    <circle cx="446" cy="286" r="1.8" fill="#ffffff" opacity="0.52"/>
    <circle cx="163" cy="243" r="1.0" fill="#ffffff" opacity="0.29"/>
    <circle cx="274" cy="385" r="1.0" fill="#ffffff" opacity="0.22"/>
    <circle cx="755" cy="349" r="1.8" fill="#ffffff" opacity="0.55"/>
    <circle cx="724" cy="266" r="0.8" fill="#ffffff" opacity="0.20"/>
    <circle cx="615" cy="161" r="1.8" fill="#ffffff" opacity="0.27"/>
    <circle cx="988" cy="376" r="1.3" fill="#ffffff" opacity="0.38"/>
    <circle cx="1115" cy="616" r="1.0" fill="#ffffff" opacity="0.25"/>
    <circle cx="671" cy="537" r="0.8" fill="#ffffff" opacity="0.28"/>
    <circle cx="1101" cy="129" r="0.8" fill="#ffffff" opacity="0.18"/>
    <circle cx="494" cy="157" r="0.8" fill="#ffffff" opacity="0.23"/>
    <circle cx="443" cy="360" r="1.0" fill="#ffffff" opacity="0.19"/>
    <circle cx="166" cy="284" r="1.3" fill="#ffffff" opacity="0.45"/>
    <circle cx="829" cy="368" r="1.0" fill="#ffffff" opacity="0.42"/>
    <circle cx="1108" cy="299" r="1.3" fill="#ffffff" opacity="0.47"/>
    <circle cx="1155" cy="13" r="0.8" fill="#ffffff" opacity="0.37"/>
    <circle cx="877" cy="201" r="0.8" fill="#ffffff" opacity="0.18"/>
    <circle cx="655" cy="464" r="1.0" fill="#ffffff" opacity="0.51"/>
    <circle cx="1098" cy="222" r="1.8" fill="#ffffff" opacity="0.56"/>
    <circle cx="1045" cy="263" r="0.8" fill="#ffffff" opacity="0.54"/>
    <circle cx="687" cy="394" r="1.8" fill="#ffffff" opacity="0.32"/>
    <circle cx="15" cy="46" r="0.8" fill="#ffffff" opacity="0.44"/>
    <circle cx="1192" cy="554" r="1.3" fill="#ffffff" opacity="0.32"/>
    <circle cx="882" cy="366" r="1.8" fill="#ffffff" opacity="0.36"/>
    <circle cx="650" cy="327" r="0.8" fill="#ffffff" opacity="0.29"/>
    <circle cx="105" cy="14" r="0.8" fill="#ffffff" opacity="0.37"/>
    <circle cx="737" cy="580" r="1.3" fill="#ffffff" opacity="0.55"/>
    <circle cx="442" cy="90" r="1.0" fill="#ffffff" opacity="0.38"/>
    <circle cx="905" cy="216" r="1.8" fill="#ffffff" opacity="0.37"/>
    <circle cx="290" cy="255" r="1.3" fill="#ffffff" opacity="0.24"/>
    <circle cx="517" cy="508" r="1.0" fill="#ffffff" opacity="0.55"/>
    <circle cx="461" cy="367" r="1.3" fill="#ffffff" opacity="0.24"/>
    <circle cx="161" cy="221" r="0.8" fill="#ffffff" opacity="0.47"/>
    <circle cx="1140" cy="174" r="1.0" fill="#ffffff" opacity="0.20"/>
  </g>
  <g filter="url(#soft)" opacity="0.5">
    <path d="M343 152 L473 126 L603 96 L733 58" stroke="#38e0ff" stroke-width="10" fill="none" stroke-linecap="round"/>
  </g>
  <path d="M343 152 L473 126 L603 96 L733 58" stroke="#38e0ff" stroke-width="3" fill="none"
        stroke-linecap="round" stroke-dasharray="2 14" opacity="0.85"/>
  <g>
    <rect x="300" y="380" width="86" height="90" rx="10" fill="#38e0ff" opacity="0.25"/><circle cx="343" cy="354" r="7" fill="#38e0ff" opacity="0.50"/><rect x="430" y="320" width="86" height="150" rx="10" fill="#38e0ff" opacity="0.47"/><circle cx="473" cy="294" r="7" fill="#38e0ff" opacity="0.72"/><rect x="560" y="255" width="86" height="215" rx="10" fill="#38e0ff" opacity="0.69"/><circle cx="603" cy="229" r="7" fill="#38e0ff" opacity="0.94"/><rect x="690" y="180" width="86" height="290" rx="10" fill="#38e0ff" opacity="0.91"/><circle cx="733" cy="154" r="7" fill="#38e0ff" opacity="1.00"/>
  </g>
  <line x1="260" y1="470" x2="940" y2="470" stroke="#ffffff" stroke-width="1.5" opacity="0.25"/>
</svg>
